<svg xmlns="http://www.w3.org/2000/svg" viewBox="0 0 32 32" width="32" height="32">
  <defs>
    <linearGradient id="leafGradient" x1="0%" y1="0%" x2="100%" y2="100%">
      <stop offset="0%" style="stop-color:#22c55e;stop-opacity:1" />
      <stop offset="50%" style="stop-color:#16a34a;stop-opacity:1" />
      <stop offset="100%" style="stop-color:#15803d;stop-opacity:1" />
    </linearGradient>
  </defs>
  
  <!-- Main tobacco leaf shape -->
  <path d="M8 28 C8 28, 4 20, 6 12 C8 4, 16 2, 24 6 C28 8, 30 12, 28 16 C26 20, 20 24, 16 26 C12 28, 8 28, 8 28 Z" 
        fill="url(#leafGradient)" 
        stroke="#166534" 
        stroke-width="0.5"/>
  
  <!-- Leaf veins -->
  <path d="M10 24 Q14 20, 18 16 Q22 12, 24 8" 
        stroke="#166534" 
        stroke-width="0.8" 
        fill="none"/>
  <path d="M12 22 Q15 19, 18 16" 
        stroke="#166534" 
        stroke-width="0.5" 
        fill="none"/>
  <path d="M14 20 Q16 18, 18 16" 
        stroke="#166534" 
        stroke-width="0.5" 
        fill="none"/>
  <path d="M16 18 Q17 17, 18 16" 
        stroke="#166534" 
        stroke-width="0.3" 
        fill="none"/>
  
  <!-- Small highlight for dimension -->
  <ellipse cx="20" cy="12" rx="2" ry="1" fill="#22c55e" opacity="0.3"/>
</svg>
